<svg width="290" height="79" viewBox="0 0 290 79" fill="none" xmlns="http://www.w3.org/2000/svg">
<path d="M12.3412 64.7919H9.25716L4.61323 58.3011V64.7919H1.90576V51.9897H4.61323V58.1935L9.20337 51.9897H12.0901L7.42828 58.1397L12.3412 64.7919ZM26.7369 51.9897C28.3865 51.9897 29.5878 52.3483 30.3409 53.0655C31.1059 53.7707 31.4884 54.745 31.4884 55.9881C31.4884 56.5499 31.4048 57.0878 31.2374 57.6018C31.0701 58.1039 30.7892 58.5581 30.3947 58.9645C30.0122 59.359 29.5041 59.6698 28.8706 59.8969C28.2371 60.124 27.4541 60.2376 26.5218 60.2376H25.3563V64.7919H22.6488V51.9897H26.7369ZM26.5935 54.213H25.3563V58.0142H26.2528C26.7668 58.0142 27.2091 57.9485 27.5796 57.817C27.9502 57.6855 28.2371 57.4763 28.4403 57.1894C28.6435 56.9026 28.7451 56.532 28.7451 56.0778C28.7451 55.4442 28.5718 54.978 28.2251 54.6792C27.8785 54.3684 27.3346 54.213 26.5935 54.213ZM49.5464 64.7919L48.6141 61.7437H43.9522L43.0198 64.7919H40.0972L44.6156 51.9359H47.9327L52.4691 64.7919H49.5464ZM47.0362 56.4902C46.9764 56.287 46.8987 56.03 46.8031 55.7192C46.7075 55.4084 46.6118 55.0916 46.5162 54.7689C46.4206 54.4461 46.3429 54.1652 46.2831 53.9261C46.2234 54.1652 46.1397 54.464 46.0321 54.8227C45.9365 55.1693 45.8408 55.504 45.7452 55.8267C45.6615 56.1375 45.5958 56.3587 45.548 56.4902L44.6335 59.4666H47.9686L47.0362 56.4902ZM68.2195 54.0696C67.7055 54.0696 67.2453 54.1712 66.8389 54.3744C66.4444 54.5776 66.1097 54.8705 65.8348 55.253C65.5599 55.6235 65.3507 56.0778 65.2072 56.6157C65.0758 57.1536 65.01 57.7572 65.01 58.4266C65.01 59.3351 65.1176 60.1121 65.3328 60.7576C65.5599 61.3911 65.9125 61.8752 66.3906 62.2099C66.8688 62.5446 67.4784 62.712 68.2195 62.712C68.7455 62.712 69.2655 62.6522 69.7795 62.5327C70.3054 62.4131 70.8732 62.2458 71.4828 62.0306V64.3078C70.921 64.5349 70.3652 64.7022 69.8153 64.8098C69.2655 64.9174 68.6498 64.9712 67.9685 64.9712C66.6536 64.9712 65.5658 64.7022 64.7052 64.1643C63.8565 63.6145 63.2289 62.8494 62.8225 61.8692C62.4161 60.8771 62.2129 59.7236 62.2129 58.4087C62.2129 57.4405 62.3444 56.5559 62.6074 55.755C62.8703 54.9422 63.2528 54.2429 63.7549 53.6572C64.2689 53.0715 64.8965 52.6172 65.6376 52.2945C66.3906 51.9717 67.2513 51.8104 68.2195 51.8104C68.8531 51.8104 69.4866 51.894 70.1201 52.0614C70.7656 52.2168 71.3812 52.432 71.9669 52.7069L71.0884 54.9123C70.6102 54.6852 70.1261 54.488 69.636 54.3206C69.1579 54.1533 68.6857 54.0696 68.2195 54.0696ZM94.168 58.3728C94.168 59.365 94.0424 60.2675 93.7914 61.0803C93.5524 61.8812 93.1818 62.5745 92.6797 63.1602C92.1897 63.7459 91.5561 64.1942 90.7791 64.505C90.0141 64.8158 89.1116 64.9712 88.0717 64.9712C87.0317 64.9712 86.1233 64.8158 85.3463 64.505C84.5812 64.1822 83.9477 63.734 83.4457 63.1602C82.9556 62.5745 82.585 61.8752 82.334 61.0624C82.0949 60.2495 81.9754 59.3471 81.9754 58.3549C81.9754 57.0281 82.1905 55.8746 82.6209 54.8944C83.0632 53.9142 83.7326 53.1551 84.6291 52.6172C85.5375 52.0674 86.691 51.7924 88.0896 51.7924C89.4762 51.7924 90.6178 52.0674 91.5143 52.6172C92.4108 53.1551 93.0742 53.9202 93.5045 54.9123C93.9468 55.8925 94.168 57.046 94.168 58.3728ZM84.8263 58.3728C84.8263 59.2694 84.9399 60.0404 85.167 60.6858C85.3941 61.3313 85.7467 61.8274 86.2249 62.1741C86.703 62.5207 87.3186 62.694 88.0717 62.694C88.8486 62.694 89.4702 62.5207 89.9364 62.1741C90.4146 61.8274 90.7612 61.3313 90.9764 60.6858C91.2035 60.0404 91.317 59.2694 91.317 58.3728C91.317 57.0221 91.066 55.9642 90.564 55.1992C90.0619 54.4342 89.2371 54.0517 88.0896 54.0517C87.3246 54.0517 86.703 54.225 86.2249 54.5716C85.7467 54.9183 85.3941 55.4144 85.167 56.0598C84.9399 56.7053 84.8263 57.4763 84.8263 58.3728ZM109.904 64.7919H107.197V54.2489H103.718V51.9897H113.382V54.2489H109.904V64.7919ZM130.628 64.7919L129.695 61.7437H125.033L124.101 64.7919H121.178L125.697 51.9359H129.014L133.55 64.7919H130.628ZM128.117 56.4902C128.058 56.287 127.98 56.03 127.884 55.7192C127.789 55.4084 127.693 55.0916 127.597 54.7689C127.502 54.4461 127.424 54.1652 127.364 53.9261C127.305 54.1652 127.221 54.464 127.113 54.8227C127.018 55.1693 126.922 55.504 126.826 55.8267C126.743 56.1375 126.677 56.3587 126.629 56.4902L125.715 59.4666H129.05L128.117 56.4902Z" fill="#525252"/>
<path d="M200.615 54.0696C200.101 54.0696 199.641 54.1712 199.234 54.3744C198.84 54.5776 198.505 54.8705 198.23 55.253C197.955 55.6235 197.746 56.0778 197.603 56.6157C197.471 57.1536 197.405 57.7572 197.405 58.4266C197.405 59.3351 197.513 60.1121 197.728 60.7576C197.955 61.3911 198.308 61.8752 198.786 62.2099C199.264 62.5446 199.874 62.712 200.615 62.712C201.141 62.712 201.661 62.6522 202.175 62.5327C202.701 62.4131 203.268 62.2458 203.878 62.0306V64.3078C203.316 64.5349 202.76 64.7022 202.211 64.8098C201.661 64.9174 201.045 64.9712 200.364 64.9712C199.049 64.9712 197.961 64.7022 197.1 64.1643C196.252 63.6145 195.624 62.8494 195.218 61.8692C194.811 60.8771 194.608 59.7236 194.608 58.4087C194.608 57.4405 194.74 56.5559 195.003 55.755C195.266 54.9422 195.648 54.2429 196.15 53.6572C196.664 53.0715 197.292 52.6172 198.033 52.2945C198.786 51.9717 199.647 51.8104 200.615 51.8104C201.248 51.8104 201.882 51.894 202.515 52.0614C203.161 52.2168 203.776 52.432 204.362 52.7069L203.484 54.9123C203.005 54.6852 202.521 54.488 202.031 54.3206C201.553 54.1533 201.081 54.0696 200.615 54.0696ZM220.225 64.7919H217.518V54.2489H214.04V51.9897H223.704V54.2489H220.225V64.7919ZM234.374 51.9897H236.813V58.1756C236.813 58.4744 236.807 58.8091 236.795 59.1797C236.783 59.5503 236.771 59.9148 236.759 60.2734C236.747 60.6201 236.735 60.9249 236.723 61.1879C236.711 61.4389 236.699 61.6122 236.687 61.7079H236.741L242.658 51.9897H245.903V64.7919H243.483V58.6418C243.483 58.3191 243.489 57.9664 243.501 57.5839C243.513 57.1894 243.525 56.8129 243.537 56.4543C243.561 56.0957 243.578 55.7849 243.59 55.5219C243.614 55.247 243.632 55.0677 243.644 54.984H243.572L237.638 64.7919H234.374V51.9897ZM267.962 64.7919H265.254V54.2489H262.117C262.045 54.7987 261.967 55.3964 261.884 56.0419C261.812 56.6874 261.728 57.3448 261.633 58.0142C261.549 58.6717 261.459 59.2992 261.364 59.8969C261.268 60.4826 261.172 61.0026 261.077 61.4568C260.921 62.198 260.712 62.8315 260.449 63.3575C260.198 63.8834 259.846 64.2838 259.391 64.5588C258.949 64.8337 258.369 64.9712 257.652 64.9712C257.413 64.9712 257.186 64.9532 256.971 64.9174C256.756 64.8815 256.552 64.8337 256.361 64.7739V62.5506C256.516 62.5984 256.666 62.6402 256.809 62.6761C256.965 62.712 257.132 62.7299 257.311 62.7299C257.55 62.7299 257.748 62.6522 257.903 62.4968C258.058 62.3414 258.196 62.0784 258.315 61.7079C258.435 61.3254 258.555 60.7994 258.674 60.13C258.734 59.8431 258.806 59.4367 258.889 58.9107C258.973 58.3728 259.069 57.7453 259.176 57.0281C259.296 56.2989 259.415 55.51 259.535 54.6613C259.654 53.8006 259.768 52.9101 259.875 51.9897H267.962V64.7919ZM279.888 64.7919V51.9897H282.595V56.9026H283.671C284.878 56.9026 285.864 57.0699 286.629 57.4046C287.406 57.7393 287.98 58.1995 288.351 58.7852C288.721 59.371 288.907 60.0404 288.907 60.7934C288.907 61.6302 288.721 62.3474 288.351 62.9451C287.98 63.5427 287.406 64.0029 286.629 64.3257C285.852 64.6365 284.848 64.7919 283.617 64.7919H279.888ZM283.51 62.5685C284.334 62.5685 284.98 62.437 285.446 62.1741C285.924 61.9111 286.163 61.4509 286.163 60.7934C286.163 60.3392 286.044 59.9925 285.805 59.7535C285.578 59.5144 285.249 59.353 284.818 59.2694C284.4 59.1737 283.892 59.1259 283.294 59.1259H282.595V62.5685H283.51Z" fill="#C8A180"/>
<path fill-rule="evenodd" clip-rule="evenodd" d="M176.715 12.0102C171.027 12.5536 172.631 16.8921 166.555 21.5485C162.763 24.4418 160.138 25.932 157.221 28.058C150.61 32.8949 146.867 38.4092 147.013 46.5456C148.568 33.4367 159.944 27.2889 164.61 24.0789C157.854 29.5932 154.742 34.159 152.749 37.9119C148.52 45.866 148.325 51.7431 156.833 57.5735C160.333 59.9251 165.194 62.7717 166.02 69.3261C163.93 65.9811 159.214 62.2749 155.326 61.2347C163.347 66.9763 167.09 71.3598 165.875 79C163.2 68.5138 149.978 65.3043 143.804 56.3078C129.366 33.6622 156.686 29.5932 164.561 18.7002C156.2 26.3854 144.387 28.2835 138.749 39.6283C141.957 28.058 146.72 24.5324 150.414 21.9552C156.881 17.57 163.686 16.1231 166.797 7.89784C161.644 16.0798 156.735 16.441 149.345 21.0501C143.464 24.7129 137.824 30.3628 136.366 43.1539C130.097 30.949 137.242 13.8633 146.624 6.22477C156.346 -1.68604 168.402 -3.26797 178.367 8.66518C191.396 15.807 196.062 31.9897 178.659 52.2399C191.201 35.8765 188.381 21.4579 180.992 15.6258C189.694 27.3784 184.201 38.4536 179.097 48.2625C175.937 54.3185 176.861 55.6749 179.632 61.8232C174.624 57.7541 175.985 54.0024 170.638 49.935C166.993 47.2223 162.471 45.5498 159.408 42.476C157.756 40.7579 157.221 38.9054 159.408 34.339C160.575 32.0347 161.839 31.628 163.248 32.4859C164.561 33.3455 168.937 36.9611 169.52 33.8873C169.666 33.0277 169.472 32.5309 170.491 32.1247C171.172 31.8536 171.853 31.9892 171.658 31.0846C171.561 30.6328 171.707 30.4522 172.29 30.3622C172.971 30.2267 172.922 30.0011 172.825 29.277C172.533 27.514 174.04 27.7401 174.964 27.4689C175.838 27.1978 175.838 26.566 175.596 25.8414C175.45 25.4353 175.353 25.0285 175.207 24.6224C174.769 23.1754 174.721 22.2258 174.916 21.2323L176.616 21.0501L175.11 20.5083C176.422 17.5245 177.395 16.1692 176.715 12.0102ZM180.652 22.2258C181.527 25.8414 181.187 29.6399 180.214 33.1205C178.514 39.1315 175.742 41.1652 174.43 48.4887C174.818 40.7585 177.347 38.228 179.048 32.7121C179.972 29.7299 180.555 26.2949 180.652 22.2258ZM154.742 3.42206C142.784 8.61961 136.27 21.1401 136.076 33.2105C138.555 21.4129 142.59 11.2873 154.742 3.42206Z" fill="#CDA582"/>
</svg>
